<?xml version="1.0" standalone="no"?><!DOCTYPE svg PUBLIC "-//W3C//DTD SVG 1.1//EN" "http://www.w3.org/Graphics/SVG/1.1/DTD/svg11.dtd"><svg t="1568801511393" class="icon" viewBox="0 0 1024 1024" version="1.1" xmlns="http://www.w3.org/2000/svg" p-id="12640" xmlns:xlink="http://www.w3.org/1999/xlink" width="200" height="200"><defs><style type="text/css"></style></defs><path d="M592.220527 458.848034m-214.763768 0a214.763768 214.763768 0 1 0 429.527536 0 214.763768 214.763768 0 1 0-429.527536 0Z" fill="#B2FFD2" p-id="12641"></path><path d="M599.645336 1023.205834H405.720885c-14.372687 0-26.02298-14.009054-26.02298-31.291887 0-17.281753 11.650293-31.291886 26.02298-31.291886h193.977324c14.372687 0 26.02298 14.010133 26.02298 31.291886 0 17.282832-11.651372 31.291886-26.02298 31.291887h-0.052873zM697.22207 916.096944H309.269581C294.895815 916.096944 283.245522 902.086811 283.245522 884.805058s11.651372-31.291886 26.02298-31.291886h387.954647c14.372687 0 26.02298 14.010133 26.02298 31.291886s-11.651372 31.291886-26.02298 31.291886z m-194.53842-132.979726c-148.251246-0.028055-268.413168-120.697121-268.403456-269.533201 0.009711-148.837159 120.187819-269.49004 268.437985-269.499751C650.968346 244.074554 771.16156 364.712329 771.190693 513.548409c-0.143511 148.819895-120.274141 269.425298-268.507043 269.569888z m0.002158-477.821707c-114.412847 0.028055-207.142575 93.277876-207.124232 208.286348 0.018344 115.008472 92.778285 208.229159 207.190053 208.220527 114.412847-0.01079 207.157682-93.245505 207.157682-208.252898-0.137037-114.978259-92.841947-208.142837-207.223503-208.252898z" fill="#B8B8B8" p-id="12642"></path><path d="M507.683878 214.613783c-17.281753 0-31.291886-11.489517-31.291886-25.662584V26.295975c0-14.173066 14.010133-25.663663 31.291886-25.663663s31.291886 11.490596 31.291886 25.663663v162.655224c0 14.173066-14.010133 25.662584-31.291886 25.662584z m-209.04059 86.332156c-7.184185 0.003237-14.048978-2.931726-18.962883-8.109994L170.575309 177.86416c-9.373538-10.401855-8.639798-26.29058 1.654154-35.805471 10.293952-9.513812 26.38985-9.18255 36.272691 0.748847L317.60725 257.7804c7.048228 7.466891 8.945163 18.353231 4.83082 27.720295-4.114344 9.365985-13.458748 15.431216-23.794782 15.445244z m-117.001442 272.390474H27.596207C13.249416 573.337492 1.618546 561.847975 1.618546 547.674908c0-14.173066 11.63087-25.663663 25.977661-25.663662h154.045639c14.34679 0 25.976582 11.490596 25.976582 25.663662s-11.629791 25.663663-25.976582 25.663663z m814.077842 0H841.674048c-14.34679 0-25.977661-11.489517-25.97766-25.662584 0-14.173066 11.63087-25.663663 25.97766-25.663663h154.097434c14.34679 0 25.977661 11.490596 25.97766 25.663663s-11.63087 25.663663-25.97766 25.663663h-0.051794zM779.328742 310.596788c-10.358693 0.004316-19.728995-6.068468-23.847655-15.457113-4.119739-9.387566-2.201222-20.296565 4.883693-27.760219l109.105096-115.024657c9.882841-9.930318 25.97874-10.261581 36.272691-0.747768 10.293952 9.514891 11.027692 25.403616 1.654154 35.804392L798.291625 302.690731c-4.949513 5.101656-11.809989 7.961087-18.962883 7.904978z" fill="#B8B8B8" p-id="12643"></path></svg>