<?xml version="1.0" encoding="UTF-8"?>
<svg width="30px" height="31px" viewBox="0 0 30 31" version="1.1" xmlns="http://www.w3.org/2000/svg" xmlns:xlink="http://www.w3.org/1999/xlink">
    <!-- Generator: Sketch 57.1 (83088) - https://sketch.com -->
    <title>logo</title>
    <desc>Created with Sketch.</desc>
    <defs>
        <polygon id="path-1" points="0 0.0952828537 29.9073481 0.0952828537 29.9073481 30.8296358 0 30.8296358"></polygon>
    </defs>
    <g id="首页/搜索页960适配" stroke="none" stroke-width="1" fill="none" fill-rule="evenodd">
        <g id="960适配" transform="translate(-240.000000, -15.000000)">
            <g id="960头部-未登录">
                <g id="顶部">
                    <g id="logo" transform="translate(240.000000, 15.000000)">
                        <g id="logo图标">
                            <g>
                                <g id="分组" transform="translate(0.000000, 0.075115)">
                                    <mask id="mask-2" fill="white">
                                        <use xlink:href="#path-1"></use>
                                    </mask>
                                    <g id="Clip-2"></g>
                                    <path d="M23.2329439,21.398789 C23.2397072,22.7580198 22.1728011,23.8655033 20.8501492,23.8724868 C20.0651768,23.8765747 19.366558,23.4921407 18.9268343,22.8947945 C15.8162818,24.6442505 11.8360608,24.1816352 9.18263536,21.4909374 C5.9428011,18.205278 5.90816022,12.842789 9.10523204,9.51318462 C12.3024696,6.18375055 17.5206464,6.14815165 20.7604807,9.43364066 C23.4140718,12.1245088 23.9169448,16.208333 22.2558398,19.4277341 C22.8450663,19.8733165 23.2289337,20.5893824 23.2329439,21.398789 M14.8774972,0.0952828537 C6.6190442,0.138750549 -0.0417845304,7.05362418 -4.77439204e-05,15.5406407 C0.0422486188,24.0276571 6.7711989,30.8726956 15.0298177,30.8296358 C17.6035193,30.8159758 20.0220829,30.1349978 22.1310331,28.9469484 C21.3193757,27.2654538 21.5923591,25.1712505 22.9536298,23.7685857 C24.3248453,22.3560418 26.3819171,22.0760198 28.0259503,22.9280088 C29.235895,20.6953275 29.9207569,18.1218165 29.9073643,15.384278 C29.8650663,6.89726154 23.136116,0.0522230769 14.8774972,0.0952828537" id="Fill-1" fill="#00BE6E" mask="url(#mask-2)"></path>
                                </g>
                                <path d="M20.8501492,23.9476354 C19.5274972,23.9545857 18.4498177,22.8581736 18.4429898,21.4989429 C18.4362265,20.1397121 19.5031326,19.0320582 20.8257845,19.0252119 C22.1484365,19.0182615 23.226116,20.1146736 23.2329439,21.4739044 C23.2397072,22.8331352 22.1728011,23.9406187 20.8501492,23.9476354 M17.2841271,6.05635761 C14.1624696,6.07286593 11.335674,7.3563 9.26169613,9.42972308 C12.4705359,6.25852527 17.5730221,6.27623956 20.7604807,9.50875604 C23.2279392,12.0108989 23.835895,15.7176132 22.5735746,18.8135253 C22.0726906,18.469289 21.4698729,18.2700033 20.8221381,18.2734099 C19.0953978,18.2824374 17.7026354,19.7283659 17.7114199,21.5026901 C17.7147348,22.172256 17.9172762,22.7925967 18.2605359,23.305289 C15.2648453,24.6435692 11.6500939,24.0681956 9.18263536,21.5660527 C5.94296685,18.2805637 5.90816022,12.9185857 9.10456906,9.58898132 C7.01799448,11.7555747 5.73578453,14.7399209 5.75187511,18.0289868 C5.78451381,24.6076297 11.0005359,29.9135692 17.4021381,29.8803413 C19.058768,29.8714978 20.6320276,29.505289 22.0541271,28.8544593 C21.3475525,27.2242341 21.6304807,25.2513055 22.9049006,23.8959923 C22.9786575,23.8292231 23.0492652,23.7588769 23.116558,23.6851242 C24.4430221,22.4498934 26.3283812,22.1979758 27.8827459,22.9312451 C28.5656188,21.4025363 28.9433536,19.7006022 28.9345588,17.9078824 C28.9019171,11.3290692 23.685895,6.02312967 17.2841271,6.05635761" id="Fill-3" fill="#00A06E"></path>
                            </g>
                        </g>
                    </g>
                </g>
            </g>
        </g>
    </g>
</svg>