<?xml version="1.0" standalone="no"?><!DOCTYPE svg PUBLIC "-//W3C//DTD SVG 1.1//EN" "http://www.w3.org/Graphics/SVG/1.1/DTD/svg11.dtd"><svg t="1568800851151" class="icon" viewBox="0 0 1263 1024" version="1.1" xmlns="http://www.w3.org/2000/svg" p-id="12416" xmlns:xlink="http://www.w3.org/1999/xlink" width="246.6796875" height="200"><defs><style type="text/css"></style></defs><path d="M631.939547 0m50.297229 0l204.09068 0q50.297229 0 50.297229 50.297229l0 856.987406q0 50.297229-50.297229 50.297229l-204.09068 0q-50.297229 0-50.297229-50.297229l0-856.987406q0-50.297229 50.297229-50.297229Z" fill="#B2FFD2" p-id="12417"></path><path d="M1168.403345 1022.871537H95.474458c-53.646509 0-94.669703-41.553249-94.669702-95.893602V415.541521c0-54.340353 41.024484-95.893602 94.669702-95.893602H379.486146V95.893602c0-54.339063 41.024484-95.893602 94.669703-95.893602h315.567395c53.646509 0 94.669703 41.553249 94.669703 95.893602v351.612453h284.010398c53.646509 0 94.669703 41.553249 94.669703 95.894892V926.977935c0 54.339063-41.024484 95.893602-94.669703 95.893602zM379.486146 383.576987H111.254892c-25.24534 0-47.336141 22.375819-47.336141 47.947446v479.47059c0 25.571627 22.090801 47.947446 47.336141 47.947446H379.486146V383.576987z m441.794096-271.700473c0-25.571627-22.090801-47.947446-47.336141-47.947446H489.934992c-25.24534 0-47.336141 22.375819-47.336141 47.947446v847.065955h378.681391V111.876514zM1199.960343 559.382569c0-25.571627-22.090801-47.947446-47.336141-47.947446H884.392947v447.507346h268.231255c25.24534 0 47.336141-22.375819 47.336141-47.947446V559.382569zM641.405743 380.379889l31.555708 63.929068 69.425652 9.590005c6.310368 0 9.466196 9.590005 6.310368 15.982912l-53.645219 54.340353 12.622025 73.517783c0 6.392907-6.311657 12.785814-12.622025 9.590005L631.939547 575.365481l-59.956877 31.964534c-6.311657 3.195809-15.779144-3.197098-12.623315-9.590005l12.622025-73.517783-50.49068-51.144544c-6.310368-6.392907-3.154539-15.981622 6.311658-15.981623l69.424362-9.590005 31.558288-63.929068c-3.157118-9.590005 9.466196-9.590005 12.622025-3.197098z" fill="#B8B8B8" p-id="12418"></path></svg>