<?xml version="1.0" standalone="no"?><!DOCTYPE svg PUBLIC "-//W3C//DTD SVG 1.1//EN" "http://www.w3.org/Graphics/SVG/1.1/DTD/svg11.dtd"><svg t="1568801140960" class="icon" viewBox="0 0 1024 1024" version="1.1" xmlns="http://www.w3.org/2000/svg" p-id="12528" xmlns:xlink="http://www.w3.org/1999/xlink" width="200" height="200"><defs><style type="text/css"></style></defs><path d="M122.813 174.422m2 0l775 0q2 0 2 2l0 112.422q0 2-2 2l-775 0q-2 0-2-2l0-112.422q0-2 2-2Z" fill="#B2FFD2" p-id="12529"></path><path d="M865.5 960.267h-699c-48.233-0.054-87.32-39.115-87.375-87.316V232.632c0.055-48.2 39.142-87.261 87.375-87.316h58.254c16.085 0 29.125 13.031 29.125 29.106 0 16.074-13.04 29.105-29.125 29.105H166.5c-16.078 0.018-29.107 13.038-29.125 29.105v640.319c0.018 16.067 13.047 29.087 29.125 29.105h699c16.078-0.018 29.107-13.038 29.125-29.105V232.632c-0.018-16.067-13.047-29.087-29.125-29.105h-58.25c-16.084 0-29.124-13.031-29.124-29.105 0-16.075 13.04-29.106 29.125-29.106H865.5c48.233 0.055 87.32 39.116 87.375 87.316v640.319c-0.055 48.2-39.142 87.262-87.375 87.316z m-233-756.74h-233c-16.085 0-29.125-13.031-29.125-29.105 0-16.075 13.04-29.106 29.125-29.106h233c16.085 0 29.125 13.031 29.125 29.106 0 16.074-13.04 29.105-29.125 29.105z m87.375 58.21c-16.085 0-29.125-13.03-29.125-29.105V116.211c0-16.075 13.04-29.106 29.125-29.106S749 100.136 749 116.211v116.421c0 16.075-13.04 29.106-29.125 29.106z m-407.75 0c-16.085 0-29.125-13.03-29.125-29.105V116.211c0-16.075 13.04-29.106 29.125-29.106s29.125 13.031 29.125 29.106v116.421c0 16.075-13.04 29.106-29.125 29.106zM923.75 378.16H108.25c-16.085 0-29.125-13.03-29.125-29.105 0-16.075 13.04-29.105 29.125-29.105h815.5c16.085 0 29.125 13.03 29.125 29.105 0 16.074-13.04 29.105-29.125 29.105z" fill="#B8B8B8" p-id="12530"></path></svg>